<?xml version="1.0" encoding="utf-8"?>
<!-- Generator: Adobe Illustrator 16.0.2, SVG Export Plug-In . SVG Version: 6.00 Build 0)  -->
<!DOCTYPE svg PUBLIC "-//W3C//DTD SVG 1.1//EN" "http://www.w3.org/Graphics/SVG/1.1/DTD/svg11.dtd">
<svg version="1.1" id="Layer_1" xmlns="http://www.w3.org/2000/svg" xmlns:xlink="http://www.w3.org/1999/xlink" x="0px" y="0px"
	 width="192.633px" height="250.5px" viewBox="0 0 192.633 250.5" enable-background="new 0 0 192.633 250.5" xml:space="preserve">
<g>
	<path fill-rule="evenodd" clip-rule="evenodd" fill="#2E3094" d="M96.316,250.25c-28.165-11.126-51.869-27.294-67.383-48.934
		C17.694,185.64,9.002,167.375,6.312,137.408C3.769,109.098,3.02,72.377,0.25,23.313C30.382,6.727,61.03,0.945,96.316,0.25
		c35.286,0.695,65.936,6.477,96.066,23.063c-2.77,49.064-3.52,85.786-6.062,114.096c-2.69,29.967-11.383,48.231-22.622,63.908
		C148.186,222.956,124.48,239.124,96.316,250.25z"/>
	<path fill-rule="evenodd" clip-rule="evenodd" fill="#FFFFFF" d="M130.298,220.103c7.883-5.723,15.115-12.282,21.321-19.774H41.014
		c6.206,7.492,13.438,14.052,21.321,19.774H130.298L130.298,220.103z M75.441,204.579l3.592-1.147h1.644v13.472h-2.331v-11.082
		l-2.407,0.668L75.441,204.579L75.441,204.579z M93.957,209.833c0,1.083-0.13,2.07-0.392,2.962s-0.637,1.659-1.128,2.303
		c-0.49,0.643-1.092,1.143-1.806,1.5c-0.713,0.356-1.516,0.534-2.407,0.534c-0.93,0-1.732-0.148-2.408-0.445
		c-0.674-0.296-1.298-0.678-1.872-1.147l1.28-1.789c0.51,0.434,1.003,0.752,1.481,0.955c0.477,0.204,1.003,0.306,1.576,0.306
		c0.496,0,0.938-0.102,1.327-0.306c0.389-0.206,0.721-0.496,0.994-0.875c0.274-0.376,0.487-0.825,0.64-1.344
		c0.153-0.517,0.242-1.083,0.268-1.697c-0.331,0.407-0.755,0.745-1.271,1.012c-0.516,0.269-1.137,0.401-1.863,0.401
		c-0.713,0-1.359-0.099-1.938-0.296c-0.58-0.198-1.077-0.484-1.49-0.86c-0.415-0.375-0.736-0.824-0.966-1.346
		c-0.229-0.523-0.344-1.109-0.344-1.758c0-0.663,0.121-1.278,0.363-1.845s0.582-1.058,1.022-1.472
		c0.439-0.414,0.965-0.738,1.576-0.975c0.611-0.234,1.286-0.353,2.025-0.353c0.841,0,1.551,0.118,2.13,0.353
		c0.58,0.236,1.105,0.589,1.577,1.061c0.497,0.497,0.892,1.144,1.185,1.94C93.811,207.447,93.957,208.508,93.957,209.833
		L93.957,209.833z M91.435,207.808c0,0.331-0.061,0.643-0.182,0.937c-0.121,0.292-0.302,0.551-0.538,0.773
		c-0.235,0.224-0.522,0.398-0.863,0.525c-0.338,0.128-0.716,0.191-1.14,0.191c-0.844,0-1.513-0.224-2.003-0.669
		c-0.494-0.446-0.739-1.025-0.739-1.738c0-0.7,0.232-1.293,0.7-1.777c0.466-0.483,1.122-0.727,1.966-0.727
		c0.42,0,0.805,0.064,1.149,0.192c0.347,0.127,0.64,0.302,0.882,0.525c0.242,0.223,0.434,0.483,0.567,0.783
		C91.368,207.123,91.435,207.451,91.435,207.808L91.435,207.808z M100.739,205.458c-0.611,0-1.149,0.165-1.614,0.497
		c-0.465,0.331-0.959,0.834-1.481,1.509l-1.661-1.3c0.317-0.445,0.643-0.844,0.974-1.197s0.691-0.648,1.08-0.888
		c0.388-0.24,0.815-0.421,1.279-0.548c0.466-0.131,0.998-0.195,1.596-0.195c0.662,0,1.269,0.096,1.815,0.287
		c0.548,0.191,1.014,0.466,1.395,0.822c0.382,0.356,0.679,0.78,0.889,1.27c0.211,0.491,0.315,1.035,0.315,1.635
		c0,0.535-0.07,1.012-0.21,1.432c-0.141,0.421-0.354,0.829-0.641,1.224s-0.648,0.796-1.089,1.203
		c-0.439,0.408-0.953,0.854-1.539,1.339l-2.751,2.292h6.363v2.064h-9.668v-1.851l4.604-3.91c0.46-0.383,0.848-0.73,1.167-1.039
		c0.317-0.313,0.576-0.607,0.773-0.888c0.197-0.281,0.341-0.555,0.431-0.822c0.089-0.264,0.133-0.551,0.133-0.856
		c0-0.662-0.207-1.172-0.621-1.535C101.864,205.639,101.351,205.458,100.739,205.458L100.739,205.458z M113.924,205.573h-5.79
		v-2.045h8.847v1.758l-3.726,3.821c0.509,0.063,1.003,0.181,1.481,0.353c0.478,0.173,0.896,0.408,1.26,0.708
		c0.363,0.299,0.653,0.672,0.87,1.117c0.217,0.446,0.325,0.981,0.325,1.604c0,0.625-0.114,1.194-0.345,1.711
		c-0.229,0.516-0.548,0.961-0.955,1.337c-0.407,0.377-0.902,0.669-1.481,0.88c-0.579,0.21-1.212,0.314-1.901,0.314
		c-1.172,0-2.175-0.22-3.009-0.658c-0.834-0.439-1.538-1.004-2.111-1.691l1.644-1.529c0.484,0.574,1.003,1.01,1.557,1.31
		s1.208,0.448,1.959,0.448c0.662,0,1.213-0.184,1.653-0.554c0.438-0.369,0.658-0.866,0.658-1.491c0-0.674-0.273-1.19-0.822-1.547
		c-0.547-0.356-1.299-0.535-2.254-0.535h-1.089l-0.382-1.471L113.924,205.573z"/>
	<path fill-rule="evenodd" clip-rule="evenodd" fill="#FFFFFF" d="M180.721,115.039c0.531-9.076,0.938-18.162,1.347-27.221
		c0.908-20.109,1.768-40.213,2.864-60.313C156.8,12.968,128.107,8.098,96.316,7.459c-31.79,0.639-60.482,5.509-88.615,20.046
		c1.097,20.1,1.956,40.204,2.864,60.313c0.552,12.218,1.099,24.486,1.953,36.709L96.316,82.67L180.721,115.039L180.721,115.039z
		 M168.821,41.685c-0.295,0.959-0.69,1.757-1.184,2.394c-0.493,0.635-1.054,1.119-1.682,1.451c-0.628,0.331-1.311,0.515-2.05,0.549
		c-0.741,0.034-1.513-0.073-2.316-0.322c-1.255-0.387-2.222-0.96-2.901-1.722c-0.681-0.761-1.177-1.597-1.49-2.506l2.477-1.346
		c0.294,0.752,0.641,1.372,1.04,1.86c0.4,0.488,0.948,0.839,1.645,1.054c0.773,0.24,1.477,0.172,2.109-0.2
		c0.632-0.373,1.115-1.101,1.45-2.184l2.414-7.816l-4.354-1.344l0.854-2.846l7.301,2.255l-0.853,2.846l-0.023-0.007L168.821,41.685
		L168.821,41.685z M150.766,35.638l-5.739-1.155l4.199-6.094L150.766,35.638L150.766,35.638z M151.335,25.17l3.958,18.268
		l-3.097-0.623l-0.882-4.366l-7.883-1.585l-2.524,3.68l-3.002-0.604l10.715-15.315L151.335,25.17L151.335,25.17z M133.378,24.837
		l-9.658-1.079l0.293-2.631l13.521,1.509l-0.245,2.197L125.97,35.793l9.972,1.113l-0.294,2.632l-13.835-1.544l0.245-2.197
		L133.378,24.837L133.378,24.837z M116.096,20.533l2.957,0.207l-1.19,16.965l-2.956-0.208L116.096,20.533L116.096,20.533z
		 M108.382,25.699c-0.026,0.878-0.363,1.568-1.013,2.068c-0.647,0.503-1.51,0.736-2.582,0.705l-4.383-0.131l0.172-5.731l4.358,0.131
		c1.121,0.033,1.984,0.298,2.584,0.798C108.124,24.035,108.411,24.756,108.382,25.699L108.382,25.699z M111.609,37.255l-3.521-0.105
		l-4.013-6.051l-3.751-0.112l-0.178,5.926l-2.963-0.088l0.509-16.999l7.577,0.227c0.971,0.029,1.846,0.181,2.623,0.455
		c0.777,0.274,1.431,0.651,1.96,1.128c0.528,0.478,0.928,1.057,1.199,1.738s0.396,1.434,0.369,2.259
		c-0.021,0.712-0.141,1.345-0.359,1.897c-0.22,0.553-0.515,1.038-0.883,1.457c-0.369,0.418-0.805,0.77-1.308,1.055
		c-0.502,0.284-1.056,0.499-1.659,0.643L111.609,37.255L111.609,37.255z M92.638,19.889l0.135,2.693l-9.608,0.479l0.218,4.368
		l8.517-0.425l0.135,2.694l-8.518,0.425l0.228,4.537l9.729-0.485l0.134,2.693l-12.689,0.633l-0.848-16.985L92.638,19.889
		L92.638,19.889z M75.725,20.743l0.299,2.68l-9.609,1.072l0.52,4.66l8.523-0.951l0.299,2.68l-8.523,0.952l0.769,6.881l-2.946,0.329
		l-1.886-16.902L75.725,20.743L75.725,20.743z M60.303,39.703l-2.754,0.426l-0.439-2.836l2.754-0.427L60.303,39.703L60.303,39.703z
		 M54.863,37.709c-0.322,0.555-0.677,1.062-1.063,1.523c-0.387,0.46-0.818,0.882-1.297,1.264c-0.478,0.383-1.021,0.713-1.631,0.991
		c-0.609,0.279-1.302,0.506-2.075,0.681c-1.217,0.274-2.389,0.307-3.516,0.096c-1.127-0.21-2.152-0.613-3.075-1.21
		c-0.924-0.597-1.717-1.368-2.379-2.314c-0.662-0.947-1.129-2.02-1.4-3.221c-0.267-1.185-0.309-2.346-0.126-3.483
		c0.184-1.138,0.565-2.183,1.147-3.136c0.581-0.954,1.343-1.773,2.283-2.459c0.941-0.686,2.043-1.171,3.308-1.458
		c0.758-0.171,1.464-0.264,2.116-0.278c0.652-0.015,1.266,0.033,1.839,0.145c0.573,0.111,1.116,0.274,1.63,0.491
		c0.514,0.215,1.011,0.469,1.491,0.758l-1.385,2.58c-0.803-0.466-1.618-0.805-2.446-1.017c-0.828-0.211-1.716-0.209-2.664,0.005
		c-0.79,0.179-1.485,0.498-2.088,0.957c-0.602,0.46-1.087,1.01-1.458,1.65c-0.37,0.639-0.609,1.346-0.717,2.117
		c-0.108,0.771-0.069,1.568,0.116,2.39c0.186,0.822,0.494,1.562,0.925,2.22c0.432,0.658,0.952,1.2,1.563,1.627
		c0.611,0.426,1.288,0.717,2.028,0.874c0.742,0.156,1.507,0.146,2.297-0.033c1.011-0.229,1.836-0.619,2.476-1.17
		s1.239-1.239,1.8-2.063L54.863,37.709L54.863,37.709z M32.459,28.227l0.868,2.554l-9.153,3.115l1.511,4.438l8.118-2.762l0.87,2.552
		l-8.119,2.763l2.229,6.555l-2.806,0.955l-5.479-16.1L32.459,28.227L32.459,28.227z M35.479,45.297l-2.622,0.941l-0.971-2.701
		l2.623-0.941L35.479,45.297L35.479,45.297z M89.527,67.889c7.431,4.786,8.688,0.276,10.76,0.467
		c2.488,0.212,3.814,5.233,11.063,7.077c5.503,1,8.508,7.225,11.479,10.447c-4.398-0.864-6.007-3.822-7.82-4.125
		c-2.138-0.357-3.694,0.32-6.053-0.948c-1.755-0.944-3.396-2.992-6.16-4.813c-1.259-0.83-5.576-4.068-8.777-1.329
		c-3.066,2.887-9.978,10.793-13.939,11.134c2.144-3.095,6.825-6.554,4.758-11.809c-0.343-0.917-2.941-3.902-3.821-4.367
		c-2.999-1.583-3.298,1.95-4.049,3.823c-5.199-4.464,2.793-4.134-6.866-11.831c-2.277-1.815-2.328-0.933-9.114,2.764
		c-5.286,2.879-7.281,5.651-9.041,10.645c-3.168,5.667-3.625,4.938-4.652,6.674c-0.161-2.853,0.146-1.789,1.523-5.433
		c1.622-4.288-1.544-6.399-5.363-3.578c-5.345,3.948-8.25,7.036-18.076,9.848c3.066-2.505,4.746-3.284,6.792-4.387
		c2.957-1.595,7.806-6.726,10.548-9.137c3.466-3.048,6.245-1.313,11.1-3.245c1.957-0.779,4.047-2.401,7.431-4.714
		c11.593-8.759,10.311-6.741,21.043,1.761c1.569,1.244,3.483,3.694,4.686,2.935c6.912-4.372,18.528-16.525,25.275-15.703
		c5.6,0.683,10.184,6.035,14.38,10.378c1.939,2.008,7.906,0.583,10.334,2.337c3.03,2.506,5.91,3.973,9.363,7.198
		c2.507,2.342,5.328,6.221,8.071,7.48c7.376,3.385,11.561,4.645,14.984,7.616c-10.185-0.072-16.76-2.178-20.299-4.823
		c-5.961-4.454-5.548-10.366-15.572-10.133c5.379,5.531,3.638,11.357,9.516,16.244c-14.238-5.027-6.34-7.852-13.04-15.784
		c-1.15-1.361-4.134-5.064-6.148-5.313c-2.151,2.541-1.649,8.799-5.161,12.029c-1.075-8.421,1.148-9.932,0.436-13.22
		c-0.197-0.908-1.875-2-2.809-3.848c-0.835-1.651-0.868-4.049-2.021-5.183c-0.87-0.855-2.167-1.332-2.944-1.317
		c-2.563,0.045-6.174,2.195-9.628,4.485C97.057,61.28,92.33,65.41,89.527,67.889z"/>
	<path fill-rule="evenodd" clip-rule="evenodd" fill="#FFFFFF" d="M95.479,118.395c-1.969,0-3.89,0.197-5.741,0.571
		c-1.834,0.371-3.606,0.917-5.298,1.62l-0.048,2.293c1.747,0.044,3.479,0.189,5.196,0.43c1.569,0.219,3.129,0.517,4.678,0.891
		c0.779-0.298,1.558-0.578,2.336-0.838c1.189-0.398,2.382-0.753,3.574-1.065c1.194-0.312,2.394-0.583,3.592-0.812
		c0.902-0.172,1.803-0.32,2.702-0.445l-0.172-0.544C102.959,119.141,99.307,118.395,95.479,118.395L95.479,118.395z M83.179,123.419
		l0.048-2.296c-1.432,0.674-2.799,1.463-4.09,2.354c-1.438,0.992-2.782,2.115-4.019,3.352c-1.733,1.733-3.246,3.686-4.491,5.807
		c-1.029,1.755-1.88,3.631-2.522,5.6c0.368-0.341,0.739-0.677,1.113-1.01c0.677-0.602,1.367-1.193,2.069-1.768
		c0.836-0.686,1.698-1.354,2.585-2.001c0.813-0.592,1.642-1.161,2.489-1.703c1.006-1.486,2.06-2.935,3.185-4.326
		C80.678,126.026,81.881,124.684,83.179,123.419L83.179,123.419z M76.295,133.233c0.775,1.441,1.633,2.764,2.572,3.968
		c0.915,1.173,1.906,2.234,2.972,3.187c-0.25,1.026-0.475,2.051-0.673,3.072c-0.279,1.437-0.507,2.866-0.686,4.284
		c-0.177,1.416-0.308,2.835-0.392,4.255c-0.053,0.904-0.087,1.809-0.103,2.715l-6.099,3.951c-0.387-0.333-0.768-0.676-1.139-1.03
		c-0.771-0.731-1.504-1.507-2.201-2.319c-0.693-0.81-1.354-1.66-1.979-2.55c-0.614-0.871-1.196-1.78-1.745-2.726
		c-0.045-0.459-0.08-0.921-0.103-1.387c-0.024-0.473-0.036-0.962-0.036-1.464c0-1.16,0.069-2.304,0.201-3.424
		c0.132-1.114,0.327-2.207,0.58-3.271c0.716-0.692,1.451-1.381,2.209-2.063c0.779-0.702,1.571-1.386,2.377-2.045
		c0.83-0.681,1.673-1.336,2.526-1.957C75.139,134.021,75.711,133.622,76.295,133.233L76.295,133.233z M73.067,159.548
		c-0.392-0.336-0.773-0.683-1.148-1.039c-0.797-0.759-1.561-1.563-2.287-2.411c-0.583-0.68-1.142-1.387-1.676-2.118
		c-0.231-0.317-0.459-0.639-0.683-0.967c0.517,2.517,1.362,4.913,2.488,7.144c1.387,2.744,3.202,5.239,5.356,7.395
		c0.529,0.528,1.073,1.033,1.63,1.51c0.4,0.343,0.812,0.676,1.232,0.999l-0.01-1.511c-1.128-1.404-2.058-2.817-2.832-4.237
		C74.275,162.729,73.604,161.142,73.067,159.548L73.067,159.548z M79.181,169.603l0.008,1.334c2.335,1.605,4.918,2.874,7.679,3.739
		c2.718,0.85,5.611,1.309,8.612,1.309c0.75,0,1.493-0.028,2.229-0.085c-0.487-0.165-0.972-0.345-1.453-0.537
		c-0.879-0.351-1.747-0.746-2.604-1.175c-0.853-0.429-1.691-0.89-2.517-1.375c-0.629-0.37-1.245-0.751-1.849-1.138
		c-1.634,0.111-3.276,0.053-4.932-0.252C82.645,171.108,80.921,170.531,79.181,169.603L79.181,169.603z M90.249,170.857
		c0.457-2.482,0.915-4.968,1.368-7.451c1.019-0.369,2.036-0.763,3.053-1.184c1.336-0.552,2.681-1.152,4.033-1.802
		c1.348-0.646,2.696-1.339,4.043-2.072c0.845-0.461,1.688-0.938,2.532-1.432c1.443,0.742,2.806,1.505,4.068,2.293
		c1.331,0.831,2.55,1.689,3.635,2.582c-0.035,0.25-0.073,0.501-0.111,0.75c-0.153,0.963-0.341,1.939-0.561,2.912
		c-0.218,0.964-0.467,1.924-0.744,2.86c-0.225,0.761-0.469,1.509-0.729,2.231c-1.864,1.142-3.82,2.063-5.844,2.82
		c-1.88,0.704-3.82,1.268-5.803,1.734c-0.853-0.246-1.684-0.535-2.497-0.859c-0.848-0.339-1.683-0.719-2.503-1.131
		c-0.823-0.412-1.637-0.859-2.441-1.335C91.25,171.483,90.751,171.177,90.249,170.857L90.249,170.857z M114.269,161.251
		c-0.06,0.484-0.13,0.977-0.209,1.473c-0.158,0.997-0.35,2.001-0.575,2.994c-0.223,0.989-0.479,1.975-0.764,2.935
		c-0.171,0.58-0.353,1.152-0.546,1.715l0.278,0.086c1.202-0.88,2.336-1.851,3.388-2.902c2.134-2.133,3.935-4.601,5.316-7.315
		c1.296-2.546,2.225-5.309,2.715-8.217l-2.341-0.046c-1.031,1.907-2.22,3.658-3.535,5.28
		C116.843,158.676,115.594,160.002,114.269,161.251L114.269,161.251z M121.622,150.771l2.427,0.049
		c0.068-0.549,0.122-1.104,0.16-1.666c0.044-0.644,0.065-1.298,0.065-1.964c0-3.902-0.775-7.621-2.18-11.014
		c-0.99-2.39-2.295-4.618-3.86-6.635l-0.674-0.007c0.018,0.741,0.025,1.48,0.025,2.216c-0.001,1.226-0.025,2.436-0.073,3.628
		c-0.049,1.211-0.119,2.396-0.211,3.556c-0.041,0.516-0.086,1.027-0.136,1.537c1.151,1.722,2.137,3.461,2.904,5.222
		C120.8,147.364,121.332,149.056,121.622,150.771L121.622,150.771z M115.992,140.071c-1.683,0.281-3.336,0.703-4.966,1.244
		c-1.64,0.545-3.254,1.213-4.845,1.984c-0.583-0.506-1.162-1.001-1.739-1.485c-1.079-0.904-2.17-1.791-3.277-2.659
		c-1.102-0.865-2.225-1.717-3.371-2.559c-0.936-0.687-1.893-1.371-2.874-2.054c-0.039-1.491-0.041-2.983,0.006-4.475
		c0.053-1.656,0.168-3.313,0.361-4.97c0.563-0.208,1.128-0.407,1.692-0.596c1.163-0.389,2.329-0.736,3.499-1.042
		c1.166-0.305,2.337-0.569,3.507-0.792c1.095-0.208,2.197-0.382,3.305-0.521c1.605,0.853,3.164,1.829,4.662,2.96
		c1.534,1.158,3.004,2.48,4.393,4.003c0.025,0.888,0.038,1.769,0.038,2.64c0,1.201-0.025,2.396-0.073,3.58
		c-0.045,1.166-0.117,2.332-0.21,3.501C116.067,139.246,116.031,139.658,115.992,140.071L115.992,140.071z M81.191,154.632
		c0.017-0.848,0.05-1.698,0.101-2.555c0.082-1.384,0.211-2.779,0.387-4.187c0.176-1.402,0.4-2.805,0.672-4.207
		c0.193-0.999,0.413-2,0.658-3.003c1.777-1.101,3.622-2.043,5.524-2.847c1.952-0.826,3.967-1.509,6.031-2.072
		c0.84,0.589,1.673,1.186,2.501,1.795c1.133,0.832,2.249,1.68,3.354,2.547c1.101,0.864,2.187,1.744,3.26,2.645
		c0.604,0.506,1.197,1.014,1.784,1.522c0.026,1.944-0.001,3.903-0.121,5.856c-0.119,1.933-0.331,3.857-0.679,5.754
		c-0.836,0.49-1.668,0.96-2.496,1.411c-1.336,0.729-2.665,1.411-3.983,2.044c-1.324,0.636-2.647,1.228-3.97,1.773
		c-1.029,0.425-2.054,0.821-3.071,1.188c-1.8-1.2-3.525-2.436-5.176-3.704C84.298,157.31,82.706,155.988,81.191,154.632
		L81.191,154.632z M74.265,125.974c5.429-5.429,12.93-8.787,21.215-8.787c4.062,0,7.937,0.809,11.473,2.273
		c3.673,1.521,6.978,3.75,9.742,6.514c5.43,5.43,8.788,12.931,8.788,21.216c0,4.062-0.809,7.938-2.272,11.473
		c-1.522,3.674-3.75,6.978-6.516,9.742c-5.429,5.43-12.931,8.787-21.215,8.787c-4.062,0-7.938-0.808-11.473-2.271
		c-3.673-1.521-6.978-3.75-9.742-6.516c-5.43-5.429-8.788-12.93-8.788-21.215c0-4.062,0.809-7.938,2.273-11.473
		C69.271,132.043,71.5,128.739,74.265,125.974z"/>
</g>
</svg>
